<svg width="100%" viewBox="0 0 680 910" xmlns="http://www.w3.org/2000/svg"><defs><mask id="imagine-text-gaps-2a2tru" maskUnits="userSpaceOnUse"><rect x="0" y="0" width="680" height="910" fill="white"/><rect x="261.745361328125" y="25.390039443969727" width="157.7541046142578" height="17.503585815429688" fill="black" rx="2"/><rect x="356" y="76.52470397949219" width="188.85159301757812" height="57.049808502197266" fill="black" rx="2"/><rect x="356" y="118.52469635009766" width="114.01724243164062" height="57.049800872802734" fill="black" rx="2"/><rect x="356" y="178.35458374023438" width="290.52032470703125" height="16.53904438018799" fill="black" rx="2"/><rect x="35.035457611083984" y="315.3900451660156" width="273.8082275390625" height="17.503585815429688" fill="black" rx="2"/><rect x="268.1278991699219" y="469.74462890625" width="145.16928100585938" height="30.042633056640625" fill="black" rx="2"/><rect x="222.9752960205078" y="500.28363037109375" width="234.04942321777344" height="13.645418167114258" fill="black" rx="2"/><rect x="35.035457611083984" y="575.3900146484375" width="72.19847869873047" height="17.503585815429688" fill="black" rx="2"/><rect x="68.97063446044922" y="706.3545532226562" width="82.02252197265625" height="16.53904438018799" fill="black" rx="2"/><rect x="79.91968536376953" y="719.319091796875" width="61.31794357299805" height="14.609960556030273" fill="black" rx="2"/><rect x="232.51942443847656" y="706.3545532226562" width="56.295413970947266" height="16.53904438018799" fill="black" rx="2"/><rect x="220.5003204345703" y="719.319091796875" width="79.53961181640625" height="14.609960556030273" fill="black" rx="2"/><rect x="384.381103515625" y="706.3545532226562" width="71.1954460144043" height="16.53904438018799" fill="black" rx="2"/><rect x="375.481689453125" y="719.319091796875" width="90.194580078125" height="15.574501991271973" fill="black" rx="2"/><rect x="532.6781005859375" y="706.3545532226562" width="74.96266174316406" height="16.53904438018799" fill="black" rx="2"/><rect x="528.0814819335938" y="719.319091796875" width="84.03791046142578" height="15.574501991271973" fill="black" rx="2"/><rect x="36" y="759.3900756835938" width="55.74332046508789" height="17.503585815429688" fill="black" rx="2"/><rect x="84" y="786.5673217773438" width="75.49593353271484" height="23.290836334228516" fill="black" rx="2"/><rect x="174" y="786.5673217773438" width="47.61331558227539" height="23.290836334228516" fill="black" rx="2"/><rect x="299.03546142578125" y="800.3546142578125" width="64.75072479248047" height="16.53904438018799" fill="black" rx="2"/><rect x="377.03546142578125" y="800.3546142578125" width="82.07270812988281" height="16.53904438018799" fill="black" rx="2"/><rect x="467.03546142578125" y="800.3546142578125" width="65.27032089233398" height="16.53904438018799" fill="black" rx="2"/><rect x="554.569091796875" y="799.6950073242188" width="51.309661865234375" height="14.609960556030273" fill="black" rx="2"/></mask></defs>
<rect width="680" height="900" fill="#0D1117" style="fill:rgb(13, 17, 23);stroke:none;color:rgb(255, 255, 255);stroke-width:1px;stroke-linecap:butt;stroke-linejoin:miter;opacity:1;font-family:&quot;Anthropic Sans&quot;, -apple-system, BlinkMacSystemFont, &quot;Segoe UI&quot;, sans-serif;font-size:16px;font-weight:400;text-anchor:start;dominant-baseline:auto"/>

<text x="340" y="38" text-anchor="middle" font-family="var(--font-sans)" font-size="11" fill="#3A4048" style="fill:rgb(58, 64, 72);stroke:none;color:rgb(255, 255, 255);stroke-width:1px;stroke-linecap:butt;stroke-linejoin:miter;opacity:1;font-family:&quot;Anthropic Sans&quot;, sans-serif;font-size:11px;font-weight:400;text-anchor:middle;dominant-baseline:auto">ISOTIPO — ESPIRAL 3 ASPAS</text>

<!-- ══════════════════════════════════════
     SÍMBOLO PRINCIPAL — espiral 3 aspas
     Centro en (200, 160), radio ~110
     ══════════════════════════════════════ -->
<g transform="translate(200,164)" style="fill:rgb(0, 0, 0);stroke:none;color:rgb(255, 255, 255);stroke-width:1px;stroke-linecap:butt;stroke-linejoin:miter;opacity:1;font-family:&quot;Anthropic Sans&quot;, -apple-system, BlinkMacSystemFont, &quot;Segoe UI&quot;, sans-serif;font-size:16px;font-weight:400;text-anchor:start;dominant-baseline:auto">

  <!-- ASPA 1 — plata/gris (inferior izquierda a superior) -->
  <path d="&#10;    M0,0&#10;    C-20,-30 -60,-80 -80,-95&#10;    C-95,-108 -105,-100 -100,-82&#10;    C-94,-62 -70,-30 -40,10&#10;    C-20,38 0,55 15,60&#10;    C30,64 38,58 32,45&#10;    C26,32 14,18 0,0 Z&#10;  " fill="#5A6570" stroke="#7A8A95" stroke-width="1" style="fill:rgb(90, 101, 112);stroke:rgb(122, 138, 149);color:rgb(255, 255, 255);stroke-width:1px;stroke-linecap:butt;stroke-linejoin:miter;opacity:1;font-family:&quot;Anthropic Sans&quot;, -apple-system, BlinkMacSystemFont, &quot;Segoe UI&quot;, sans-serif;font-size:16px;font-weight:400;text-anchor:start;dominant-baseline:auto"/>

  <!-- ASPA 2 — teal (superior a derecha) -->
  <path d="&#10;    M0,0&#10;    C30,-15 85,-35 105,-38&#10;    C120,-40 122,-28 110,-15&#10;    C96,0 65,18 28,30&#10;    C4,38 -18,40 -30,34&#10;    C-42,28 -42,16 -30,8&#10;    C-18,0 -8,-2 0,0 Z&#10;  " fill="#0F8055" stroke="#1DB87A" stroke-width="1" style="fill:rgb(15, 128, 85);stroke:rgb(29, 184, 122);color:rgb(255, 255, 255);stroke-width:1px;stroke-linecap:butt;stroke-linejoin:miter;opacity:1;font-family:&quot;Anthropic Sans&quot;, -apple-system, BlinkMacSystemFont, &quot;Segoe UI&quot;, sans-serif;font-size:16px;font-weight:400;text-anchor:start;dominant-baseline:auto"/>

  <!-- ASPA 3 — naranja (derecha-abajo a izquierda) -->
  <path d="&#10;    M0,0&#10;    C18,20 40,70 42,96&#10;    C44,115 32,120 18,112&#10;    C2,102 -18,74 -30,40&#10;    C-38,16 -38,-8 -30,-20&#10;    C-22,-32 -10,-30 -2,-18&#10;    C4,-10 2,-4 0,0 Z&#10;  " fill="#A05808" stroke="#E8850A" stroke-width="1" style="fill:rgb(160, 88, 8);stroke:rgb(232, 133, 10);color:rgb(255, 255, 255);stroke-width:1px;stroke-linecap:butt;stroke-linejoin:miter;opacity:1;font-family:&quot;Anthropic Sans&quot;, -apple-system, BlinkMacSystemFont, &quot;Segoe UI&quot;, sans-serif;font-size:16px;font-weight:400;text-anchor:start;dominant-baseline:auto"/>

  <!-- NÚCLEO central -->
  <circle cx="0" cy="0" r="14" fill="#0D1117" style="fill:rgb(13, 17, 23);stroke:none;color:rgb(255, 255, 255);stroke-width:1px;stroke-linecap:butt;stroke-linejoin:miter;opacity:1;font-family:&quot;Anthropic Sans&quot;, -apple-system, BlinkMacSystemFont, &quot;Segoe UI&quot;, sans-serif;font-size:16px;font-weight:400;text-anchor:start;dominant-baseline:auto"/>
  <circle cx="0" cy="0" r="10" fill="#1A2130" style="fill:rgb(26, 33, 48);stroke:none;color:rgb(255, 255, 255);stroke-width:1px;stroke-linecap:butt;stroke-linejoin:miter;opacity:1;font-family:&quot;Anthropic Sans&quot;, -apple-system, BlinkMacSystemFont, &quot;Segoe UI&quot;, sans-serif;font-size:16px;font-weight:400;text-anchor:start;dominant-baseline:auto"/>
  <circle cx="0" cy="0" r="5" fill="#1DB87A" opacity="0.6" style="fill:rgb(29, 184, 122);stroke:none;color:rgb(255, 255, 255);stroke-width:1px;stroke-linecap:butt;stroke-linejoin:miter;opacity:0.6;font-family:&quot;Anthropic Sans&quot;, -apple-system, BlinkMacSystemFont, &quot;Segoe UI&quot;, sans-serif;font-size:16px;font-weight:400;text-anchor:start;dominant-baseline:auto"/>

  <!-- Borde exterior circular sutil -->
  <circle cx="0" cy="0" r="112" fill="none" stroke="#1A2A22" stroke-width="1" opacity="0.5" style="fill:none;stroke:rgb(26, 42, 34);color:rgb(255, 255, 255);stroke-width:1px;stroke-linecap:butt;stroke-linejoin:miter;opacity:0.5;font-family:&quot;Anthropic Sans&quot;, -apple-system, BlinkMacSystemFont, &quot;Segoe UI&quot;, sans-serif;font-size:16px;font-weight:400;text-anchor:start;dominant-baseline:auto"/>

</g>

<!-- LOGOTIPO TEXTO al costado -->
<text x="360" y="120" font-family="Arial Black, sans-serif" font-size="38" font-weight="900" fill="#FFFFFF" style="fill:rgb(255, 255, 255);stroke:none;color:rgb(255, 255, 255);stroke-width:1px;stroke-linecap:butt;stroke-linejoin:miter;opacity:1;font-family:&quot;Arial Black&quot;, sans-serif;font-size:38px;font-weight:900;text-anchor:start;dominant-baseline:auto">OROZCO</text>
<text x="360" y="162" font-family="Arial Black, sans-serif" font-size="38" font-weight="900" fill="#1DB87A" style="fill:rgb(29, 184, 122);stroke:none;color:rgb(255, 255, 255);stroke-width:1px;stroke-linecap:butt;stroke-linejoin:miter;opacity:1;font-family:&quot;Arial Black&quot;, sans-serif;font-size:38px;font-weight:900;text-anchor:start;dominant-baseline:auto">INOX</text>
<line x1="360" y1="174" x2="580" y2="174" stroke="#1DB87A" stroke-width="0.7" opacity="0.35" mask="url(#imagine-text-gaps-2a2tru)" style="fill:rgb(0, 0, 0);stroke:rgb(29, 184, 122);color:rgb(255, 255, 255);stroke-width:0.7px;stroke-linecap:butt;stroke-linejoin:miter;opacity:0.35;font-family:&quot;Anthropic Sans&quot;, -apple-system, BlinkMacSystemFont, &quot;Segoe UI&quot;, sans-serif;font-size:16px;font-weight:400;text-anchor:start;dominant-baseline:auto"/>
<text x="360" y="190" font-family="var(--font-sans)" font-size="10" fill="#4A6058" letter-spacing="5" style="fill:rgb(74, 96, 88);stroke:none;color:rgb(255, 255, 255);stroke-width:1px;stroke-linecap:butt;stroke-linejoin:miter;opacity:1;font-family:&quot;Anthropic Sans&quot;, sans-serif;font-size:10px;font-weight:400;text-anchor:start;dominant-baseline:auto">MAQUINARIA AGROINDUSTRIAL</text>

<!-- ══════════════════════════════════════
     VERSIÓN CENTRADA COMPLETA — debajo del texto
     ══════════════════════════════════════ -->
<line x1="40" y1="308" x2="640" y2="308" stroke="#1A2130" stroke-width="1" style="fill:rgb(0, 0, 0);stroke:rgb(26, 33, 48);color:rgb(255, 255, 255);stroke-width:1px;stroke-linecap:butt;stroke-linejoin:miter;opacity:1;font-family:&quot;Anthropic Sans&quot;, -apple-system, BlinkMacSystemFont, &quot;Segoe UI&quot;, sans-serif;font-size:16px;font-weight:400;text-anchor:start;dominant-baseline:auto"/>
<text x="40" y="328" font-family="var(--font-sans)" font-size="11" fill="#3A4048" style="fill:rgb(58, 64, 72);stroke:none;color:rgb(255, 255, 255);stroke-width:1px;stroke-linecap:butt;stroke-linejoin:miter;opacity:1;font-family:&quot;Anthropic Sans&quot;, sans-serif;font-size:11px;font-weight:400;text-anchor:start;dominant-baseline:auto">VERSIÓN CENTRADA — APLICACIÓN CUADRADA</text>

<rect x="180" y="346" width="320" height="200" rx="8" fill="#121820" style="fill:rgb(18, 24, 32);stroke:none;color:rgb(255, 255, 255);stroke-width:1px;stroke-linecap:butt;stroke-linejoin:miter;opacity:1;font-family:&quot;Anthropic Sans&quot;, -apple-system, BlinkMacSystemFont, &quot;Segoe UI&quot;, sans-serif;font-size:16px;font-weight:400;text-anchor:start;dominant-baseline:auto"/>

<g transform="translate(260,446)" style="fill:rgb(0, 0, 0);stroke:none;color:rgb(255, 255, 255);stroke-width:1px;stroke-linecap:butt;stroke-linejoin:miter;opacity:1;font-family:&quot;Anthropic Sans&quot;, -apple-system, BlinkMacSystemFont, &quot;Segoe UI&quot;, sans-serif;font-size:16px;font-weight:400;text-anchor:start;dominant-baseline:auto">
  <path d="M0,0 C-10,-16 -32,-44 -44,-52 C-52,-59 -58,-55 -55,-45 C-52,-34 -38,-16 -22,6 C-11,21 0,30 8,33 C16,35 21,32 18,25 C14,18 8,10 0,0 Z" fill="#5A6570" stroke="#7A8A95" stroke-width="0.7" style="fill:rgb(90, 101, 112);stroke:rgb(122, 138, 149);color:rgb(255, 255, 255);stroke-width:0.7px;stroke-linecap:butt;stroke-linejoin:miter;opacity:1;font-family:&quot;Anthropic Sans&quot;, -apple-system, BlinkMacSystemFont, &quot;Segoe UI&quot;, sans-serif;font-size:16px;font-weight:400;text-anchor:start;dominant-baseline:auto"/>
  <path d="M0,0 C16,-8 46,-19 58,-21 C66,-22 67,-15 60,-8 C52,0 36,10 15,16 C2,21 -10,22 -16,19 C-23,15 -23,9 -16,4 C-10,0 -4,-1 0,0 Z" fill="#0F8055" stroke="#1DB87A" stroke-width="0.7" style="fill:rgb(15, 128, 85);stroke:rgb(29, 184, 122);color:rgb(255, 255, 255);stroke-width:0.7px;stroke-linecap:butt;stroke-linejoin:miter;opacity:1;font-family:&quot;Anthropic Sans&quot;, -apple-system, BlinkMacSystemFont, &quot;Segoe UI&quot;, sans-serif;font-size:16px;font-weight:400;text-anchor:start;dominant-baseline:auto"/>
  <path d="M0,0 C10,11 22,38 23,53 C24,63 18,66 10,61 C1,56 -10,40 -16,22 C-21,9 -21,-4 -16,-11 C-12,-18 -6,-16 -1,-10 C2,-6 1,-2 0,0 Z" fill="#A05808" stroke="#E8850A" stroke-width="0.7" style="fill:rgb(160, 88, 8);stroke:rgb(232, 133, 10);color:rgb(255, 255, 255);stroke-width:0.7px;stroke-linecap:butt;stroke-linejoin:miter;opacity:1;font-family:&quot;Anthropic Sans&quot;, -apple-system, BlinkMacSystemFont, &quot;Segoe UI&quot;, sans-serif;font-size:16px;font-weight:400;text-anchor:start;dominant-baseline:auto"/>
  <circle cx="0" cy="0" r="8" fill="#0D1117" style="fill:rgb(13, 17, 23);stroke:none;color:rgb(255, 255, 255);stroke-width:1px;stroke-linecap:butt;stroke-linejoin:miter;opacity:1;font-family:&quot;Anthropic Sans&quot;, -apple-system, BlinkMacSystemFont, &quot;Segoe UI&quot;, sans-serif;font-size:16px;font-weight:400;text-anchor:start;dominant-baseline:auto"/>
  <circle cx="0" cy="0" r="5" fill="#1A2130" style="fill:rgb(26, 33, 48);stroke:none;color:rgb(255, 255, 255);stroke-width:1px;stroke-linecap:butt;stroke-linejoin:miter;opacity:1;font-family:&quot;Anthropic Sans&quot;, -apple-system, BlinkMacSystemFont, &quot;Segoe UI&quot;, sans-serif;font-size:16px;font-weight:400;text-anchor:start;dominant-baseline:auto"/>
  <circle cx="0" cy="0" r="2.5" fill="#1DB87A" opacity="0.7" style="fill:rgb(29, 184, 122);stroke:none;color:rgb(255, 255, 255);stroke-width:1px;stroke-linecap:butt;stroke-linejoin:miter;opacity:0.7;font-family:&quot;Anthropic Sans&quot;, -apple-system, BlinkMacSystemFont, &quot;Segoe UI&quot;, sans-serif;font-size:16px;font-weight:400;text-anchor:start;dominant-baseline:auto"/>
</g>

<text x="340" y="492" text-anchor="middle" font-family="Arial Black, sans-serif" font-size="18" font-weight="900" fill="#FFFFFF" style="fill:rgb(255, 255, 255);stroke:none;color:rgb(255, 255, 255);stroke-width:1px;stroke-linecap:butt;stroke-linejoin:miter;opacity:1;font-family:&quot;Arial Black&quot;, sans-serif;font-size:18px;font-weight:900;text-anchor:middle;dominant-baseline:auto">OROZCO<tspan fill="#1DB87A" style="fill:rgb(29, 184, 122);stroke:none;color:rgb(255, 255, 255);stroke-width:1px;stroke-linecap:butt;stroke-linejoin:miter;opacity:1;font-family:&quot;Arial Black&quot;, sans-serif;font-size:18px;font-weight:900;text-anchor:middle;dominant-baseline:auto">INOX</tspan></text>
<text x="340" y="510" text-anchor="middle" font-family="var(--font-sans)" font-size="8" fill="#4A6058" letter-spacing="4" style="fill:rgb(74, 96, 88);stroke:none;color:rgb(255, 255, 255);stroke-width:1px;stroke-linecap:butt;stroke-linejoin:miter;opacity:1;font-family:&quot;Anthropic Sans&quot;, sans-serif;font-size:8px;font-weight:400;text-anchor:middle;dominant-baseline:auto">MAQUINARIA AGROINDUSTRIAL</text>

<!-- ══════════════════════════════════════
     3 VARIANTES DE COLOR
     ══════════════════════════════════════ -->
<line x1="40" y1="568" x2="640" y2="568" stroke="#1A2130" stroke-width="1" style="fill:rgb(0, 0, 0);stroke:rgb(26, 33, 48);color:rgb(255, 255, 255);stroke-width:1px;stroke-linecap:butt;stroke-linejoin:miter;opacity:1;font-family:&quot;Anthropic Sans&quot;, -apple-system, BlinkMacSystemFont, &quot;Segoe UI&quot;, sans-serif;font-size:16px;font-weight:400;text-anchor:start;dominant-baseline:auto"/>
<text x="40" y="588" font-family="var(--font-sans)" font-size="11" fill="#3A4048" style="fill:rgb(58, 64, 72);stroke:none;color:rgb(255, 255, 255);stroke-width:1px;stroke-linecap:butt;stroke-linejoin:miter;opacity:1;font-family:&quot;Anthropic Sans&quot;, sans-serif;font-size:11px;font-weight:400;text-anchor:start;dominant-baseline:auto">VARIANTES</text>

<!-- V1: color completo (oscuro) -->
<g transform="translate(110,644)" style="fill:rgb(0, 0, 0);stroke:none;color:rgb(255, 255, 255);stroke-width:1px;stroke-linecap:butt;stroke-linejoin:miter;opacity:1;font-family:&quot;Anthropic Sans&quot;, -apple-system, BlinkMacSystemFont, &quot;Segoe UI&quot;, sans-serif;font-size:16px;font-weight:400;text-anchor:start;dominant-baseline:auto">
  <path d="M0,0 C-10,-16 -32,-44 -44,-52 C-52,-59 -58,-55 -55,-45 C-52,-34 -38,-16 -22,6 C-11,21 0,30 8,33 C16,35 21,32 18,25 C14,18 8,10 0,0 Z" fill="#5A6570" stroke="#7A8A95" stroke-width="0.7" style="fill:rgb(90, 101, 112);stroke:rgb(122, 138, 149);color:rgb(255, 255, 255);stroke-width:0.7px;stroke-linecap:butt;stroke-linejoin:miter;opacity:1;font-family:&quot;Anthropic Sans&quot;, -apple-system, BlinkMacSystemFont, &quot;Segoe UI&quot;, sans-serif;font-size:16px;font-weight:400;text-anchor:start;dominant-baseline:auto"/>
  <path d="M0,0 C16,-8 46,-19 58,-21 C66,-22 67,-15 60,-8 C52,0 36,10 15,16 C2,21 -10,22 -16,19 C-23,15 -23,9 -16,4 C-10,0 -4,-1 0,0 Z" fill="#0F8055" stroke="#1DB87A" stroke-width="0.7" style="fill:rgb(15, 128, 85);stroke:rgb(29, 184, 122);color:rgb(255, 255, 255);stroke-width:0.7px;stroke-linecap:butt;stroke-linejoin:miter;opacity:1;font-family:&quot;Anthropic Sans&quot;, -apple-system, BlinkMacSystemFont, &quot;Segoe UI&quot;, sans-serif;font-size:16px;font-weight:400;text-anchor:start;dominant-baseline:auto"/>
  <path d="M0,0 C10,11 22,38 23,53 C24,63 18,66 10,61 C1,56 -10,40 -16,22 C-21,9 -21,-4 -16,-11 C-12,-18 -6,-16 -1,-10 C2,-6 1,-2 0,0 Z" fill="#A05808" stroke="#E8850A" stroke-width="0.7" style="fill:rgb(160, 88, 8);stroke:rgb(232, 133, 10);color:rgb(255, 255, 255);stroke-width:0.7px;stroke-linecap:butt;stroke-linejoin:miter;opacity:1;font-family:&quot;Anthropic Sans&quot;, -apple-system, BlinkMacSystemFont, &quot;Segoe UI&quot;, sans-serif;font-size:16px;font-weight:400;text-anchor:start;dominant-baseline:auto"/>
  <circle cx="0" cy="0" r="8" fill="#0D1117" style="fill:rgb(13, 17, 23);stroke:none;color:rgb(255, 255, 255);stroke-width:1px;stroke-linecap:butt;stroke-linejoin:miter;opacity:1;font-family:&quot;Anthropic Sans&quot;, -apple-system, BlinkMacSystemFont, &quot;Segoe UI&quot;, sans-serif;font-size:16px;font-weight:400;text-anchor:start;dominant-baseline:auto"/>
  <circle cx="0" cy="0" r="3" fill="#1DB87A" opacity="0.7" style="fill:rgb(29, 184, 122);stroke:none;color:rgb(255, 255, 255);stroke-width:1px;stroke-linecap:butt;stroke-linejoin:miter;opacity:0.7;font-family:&quot;Anthropic Sans&quot;, -apple-system, BlinkMacSystemFont, &quot;Segoe UI&quot;, sans-serif;font-size:16px;font-weight:400;text-anchor:start;dominant-baseline:auto"/>
</g>
<text x="110" y="718" text-anchor="middle" font-family="var(--font-sans)" font-size="10" fill="#3A6048" style="fill:rgb(58, 96, 72);stroke:none;color:rgb(255, 255, 255);stroke-width:1px;stroke-linecap:butt;stroke-linejoin:miter;opacity:1;font-family:&quot;Anthropic Sans&quot;, sans-serif;font-size:10px;font-weight:400;text-anchor:middle;dominant-baseline:auto">Color completo</text>
<text x="110" y="730" text-anchor="middle" font-family="var(--font-sans)" font-size="9" fill="#3A4048" style="fill:rgb(58, 64, 72);stroke:none;color:rgb(255, 255, 255);stroke-width:1px;stroke-linecap:butt;stroke-linejoin:miter;opacity:1;font-family:&quot;Anthropic Sans&quot;, sans-serif;font-size:9px;font-weight:400;text-anchor:middle;dominant-baseline:auto">Digital / web</text>

<!-- V2: monocromo teal -->
<g transform="translate(260,644)" style="fill:rgb(0, 0, 0);stroke:none;color:rgb(255, 255, 255);stroke-width:1px;stroke-linecap:butt;stroke-linejoin:miter;opacity:1;font-family:&quot;Anthropic Sans&quot;, -apple-system, BlinkMacSystemFont, &quot;Segoe UI&quot;, sans-serif;font-size:16px;font-weight:400;text-anchor:start;dominant-baseline:auto">
  <path d="M0,0 C-10,-16 -32,-44 -44,-52 C-52,-59 -58,-55 -55,-45 C-52,-34 -38,-16 -22,6 C-11,21 0,30 8,33 C16,35 21,32 18,25 C14,18 8,10 0,0 Z" fill="#0A5038" stroke="#1DB87A" stroke-width="0.7" style="fill:rgb(10, 80, 56);stroke:rgb(29, 184, 122);color:rgb(255, 255, 255);stroke-width:0.7px;stroke-linecap:butt;stroke-linejoin:miter;opacity:1;font-family:&quot;Anthropic Sans&quot;, -apple-system, BlinkMacSystemFont, &quot;Segoe UI&quot;, sans-serif;font-size:16px;font-weight:400;text-anchor:start;dominant-baseline:auto"/>
  <path d="M0,0 C16,-8 46,-19 58,-21 C66,-22 67,-15 60,-8 C52,0 36,10 15,16 C2,21 -10,22 -16,19 C-23,15 -23,9 -16,4 C-10,0 -4,-1 0,0 Z" fill="#0F8055" stroke="#1DB87A" stroke-width="0.7" style="fill:rgb(15, 128, 85);stroke:rgb(29, 184, 122);color:rgb(255, 255, 255);stroke-width:0.7px;stroke-linecap:butt;stroke-linejoin:miter;opacity:1;font-family:&quot;Anthropic Sans&quot;, -apple-system, BlinkMacSystemFont, &quot;Segoe UI&quot;, sans-serif;font-size:16px;font-weight:400;text-anchor:start;dominant-baseline:auto"/>
  <path d="M0,0 C10,11 22,38 23,53 C24,63 18,66 10,61 C1,56 -10,40 -16,22 C-21,9 -21,-4 -16,-11 C-12,-18 -6,-16 -1,-10 C2,-6 1,-2 0,0 Z" fill="#1DB87A" stroke="#4DCFA0" stroke-width="0.7" style="fill:rgb(29, 184, 122);stroke:rgb(77, 207, 160);color:rgb(255, 255, 255);stroke-width:0.7px;stroke-linecap:butt;stroke-linejoin:miter;opacity:1;font-family:&quot;Anthropic Sans&quot;, -apple-system, BlinkMacSystemFont, &quot;Segoe UI&quot;, sans-serif;font-size:16px;font-weight:400;text-anchor:start;dominant-baseline:auto"/>
  <circle cx="0" cy="0" r="8" fill="#0D1117" style="fill:rgb(13, 17, 23);stroke:none;color:rgb(255, 255, 255);stroke-width:1px;stroke-linecap:butt;stroke-linejoin:miter;opacity:1;font-family:&quot;Anthropic Sans&quot;, -apple-system, BlinkMacSystemFont, &quot;Segoe UI&quot;, sans-serif;font-size:16px;font-weight:400;text-anchor:start;dominant-baseline:auto"/>
  <circle cx="0" cy="0" r="3" fill="#4DCFA0" opacity="0.7" style="fill:rgb(77, 207, 160);stroke:none;color:rgb(255, 255, 255);stroke-width:1px;stroke-linecap:butt;stroke-linejoin:miter;opacity:0.7;font-family:&quot;Anthropic Sans&quot;, -apple-system, BlinkMacSystemFont, &quot;Segoe UI&quot;, sans-serif;font-size:16px;font-weight:400;text-anchor:start;dominant-baseline:auto"/>
</g>
<text x="260" y="718" text-anchor="middle" font-family="var(--font-sans)" font-size="10" fill="#3A6048" style="fill:rgb(58, 96, 72);stroke:none;color:rgb(255, 255, 255);stroke-width:1px;stroke-linecap:butt;stroke-linejoin:miter;opacity:1;font-family:&quot;Anthropic Sans&quot;, sans-serif;font-size:10px;font-weight:400;text-anchor:middle;dominant-baseline:auto">Mono teal</text>
<text x="260" y="730" text-anchor="middle" font-family="var(--font-sans)" font-size="9" fill="#3A4048" style="fill:rgb(58, 64, 72);stroke:none;color:rgb(255, 255, 255);stroke-width:1px;stroke-linecap:butt;stroke-linejoin:miter;opacity:1;font-family:&quot;Anthropic Sans&quot;, sans-serif;font-size:9px;font-weight:400;text-anchor:middle;dominant-baseline:auto">Uniforme / casco</text>

<!-- V3: sobre blanco -->
<rect x="360" y="598" width="120" height="100" rx="6" fill="#F0F2F4" style="fill:rgb(240, 242, 244);stroke:none;color:rgb(255, 255, 255);stroke-width:1px;stroke-linecap:butt;stroke-linejoin:miter;opacity:1;font-family:&quot;Anthropic Sans&quot;, -apple-system, BlinkMacSystemFont, &quot;Segoe UI&quot;, sans-serif;font-size:16px;font-weight:400;text-anchor:start;dominant-baseline:auto"/>
<g transform="translate(420,648)" style="fill:rgb(0, 0, 0);stroke:none;color:rgb(255, 255, 255);stroke-width:1px;stroke-linecap:butt;stroke-linejoin:miter;opacity:1;font-family:&quot;Anthropic Sans&quot;, -apple-system, BlinkMacSystemFont, &quot;Segoe UI&quot;, sans-serif;font-size:16px;font-weight:400;text-anchor:start;dominant-baseline:auto">
  <path d="M0,0 C-10,-16 -32,-44 -44,-52 C-52,-59 -58,-55 -55,-45 C-52,-34 -38,-16 -22,6 C-11,21 0,30 8,33 C16,35 21,32 18,25 C14,18 8,10 0,0 Z" fill="#9EA3A8" stroke="#7A8088" stroke-width="0.7" style="fill:rgb(158, 163, 168);stroke:rgb(122, 128, 136);color:rgb(255, 255, 255);stroke-width:0.7px;stroke-linecap:butt;stroke-linejoin:miter;opacity:1;font-family:&quot;Anthropic Sans&quot;, -apple-system, BlinkMacSystemFont, &quot;Segoe UI&quot;, sans-serif;font-size:16px;font-weight:400;text-anchor:start;dominant-baseline:auto"/>
  <path d="M0,0 C16,-8 46,-19 58,-21 C66,-22 67,-15 60,-8 C52,0 36,10 15,16 C2,21 -10,22 -16,19 C-23,15 -23,9 -16,4 C-10,0 -4,-1 0,0 Z" fill="#0F9060" stroke="#1DB87A" stroke-width="0.7" style="fill:rgb(15, 144, 96);stroke:rgb(29, 184, 122);color:rgb(255, 255, 255);stroke-width:0.7px;stroke-linecap:butt;stroke-linejoin:miter;opacity:1;font-family:&quot;Anthropic Sans&quot;, -apple-system, BlinkMacSystemFont, &quot;Segoe UI&quot;, sans-serif;font-size:16px;font-weight:400;text-anchor:start;dominant-baseline:auto"/>
  <path d="M0,0 C10,11 22,38 23,53 C24,63 18,66 10,61 C1,56 -10,40 -16,22 C-21,9 -21,-4 -16,-11 C-12,-18 -6,-16 -1,-10 C2,-6 1,-2 0,0 Z" fill="#C06008" stroke="#E8850A" stroke-width="0.7" style="fill:rgb(192, 96, 8);stroke:rgb(232, 133, 10);color:rgb(255, 255, 255);stroke-width:0.7px;stroke-linecap:butt;stroke-linejoin:miter;opacity:1;font-family:&quot;Anthropic Sans&quot;, -apple-system, BlinkMacSystemFont, &quot;Segoe UI&quot;, sans-serif;font-size:16px;font-weight:400;text-anchor:start;dominant-baseline:auto"/>
  <circle cx="0" cy="0" r="8" fill="#F0F2F4" style="fill:rgb(240, 242, 244);stroke:none;color:rgb(255, 255, 255);stroke-width:1px;stroke-linecap:butt;stroke-linejoin:miter;opacity:1;font-family:&quot;Anthropic Sans&quot;, -apple-system, BlinkMacSystemFont, &quot;Segoe UI&quot;, sans-serif;font-size:16px;font-weight:400;text-anchor:start;dominant-baseline:auto"/>
  <circle cx="0" cy="0" r="3" fill="#1DB87A" opacity="0.8" style="fill:rgb(29, 184, 122);stroke:none;color:rgb(255, 255, 255);stroke-width:1px;stroke-linecap:butt;stroke-linejoin:miter;opacity:0.8;font-family:&quot;Anthropic Sans&quot;, -apple-system, BlinkMacSystemFont, &quot;Segoe UI&quot;, sans-serif;font-size:16px;font-weight:400;text-anchor:start;dominant-baseline:auto"/>
</g>
<text x="420" y="718" text-anchor="middle" font-family="var(--font-sans)" font-size="10" fill="#3A6048" style="fill:rgb(58, 96, 72);stroke:none;color:rgb(255, 255, 255);stroke-width:1px;stroke-linecap:butt;stroke-linejoin:miter;opacity:1;font-family:&quot;Anthropic Sans&quot;, sans-serif;font-size:10px;font-weight:400;text-anchor:middle;dominant-baseline:auto">Sobre blanco</text>
<text x="420" y="730" text-anchor="middle" font-family="var(--font-sans)" font-size="9" fill="#3A4048" style="fill:rgb(58, 64, 72);stroke:none;color:rgb(255, 255, 255);stroke-width:1px;stroke-linecap:butt;stroke-linejoin:miter;opacity:1;font-family:&quot;Anthropic Sans&quot;, sans-serif;font-size:9px;font-weight:400;text-anchor:middle;dominant-baseline:auto">Papelería / facturas</text>

<!-- V4: 1 tinta naranja -->
<g transform="translate(570,644)" style="fill:rgb(0, 0, 0);stroke:none;color:rgb(255, 255, 255);stroke-width:1px;stroke-linecap:butt;stroke-linejoin:miter;opacity:1;font-family:&quot;Anthropic Sans&quot;, -apple-system, BlinkMacSystemFont, &quot;Segoe UI&quot;, sans-serif;font-size:16px;font-weight:400;text-anchor:start;dominant-baseline:auto">
  <path d="M0,0 C-10,-16 -32,-44 -44,-52 C-52,-59 -58,-55 -55,-45 C-52,-34 -38,-16 -22,6 C-11,21 0,30 8,33 C16,35 21,32 18,25 C14,18 8,10 0,0 Z" fill="none" stroke="#E8850A" stroke-width="1.5" style="fill:none;stroke:rgb(232, 133, 10);color:rgb(255, 255, 255);stroke-width:1.5px;stroke-linecap:butt;stroke-linejoin:miter;opacity:1;font-family:&quot;Anthropic Sans&quot;, -apple-system, BlinkMacSystemFont, &quot;Segoe UI&quot;, sans-serif;font-size:16px;font-weight:400;text-anchor:start;dominant-baseline:auto"/>
  <path d="M0,0 C16,-8 46,-19 58,-21 C66,-22 67,-15 60,-8 C52,0 36,10 15,16 C2,21 -10,22 -16,19 C-23,15 -23,9 -16,4 C-10,0 -4,-1 0,0 Z" fill="none" stroke="#E8850A" stroke-width="1.5" style="fill:none;stroke:rgb(232, 133, 10);color:rgb(255, 255, 255);stroke-width:1.5px;stroke-linecap:butt;stroke-linejoin:miter;opacity:1;font-family:&quot;Anthropic Sans&quot;, -apple-system, BlinkMacSystemFont, &quot;Segoe UI&quot;, sans-serif;font-size:16px;font-weight:400;text-anchor:start;dominant-baseline:auto"/>
  <path d="M0,0 C10,11 22,38 23,53 C24,63 18,66 10,61 C1,56 -10,40 -16,22 C-21,9 -21,-4 -16,-11 C-12,-18 -6,-16 -1,-10 C2,-6 1,-2 0,0 Z" fill="none" stroke="#E8850A" stroke-width="1.5" style="fill:none;stroke:rgb(232, 133, 10);color:rgb(255, 255, 255);stroke-width:1.5px;stroke-linecap:butt;stroke-linejoin:miter;opacity:1;font-family:&quot;Anthropic Sans&quot;, -apple-system, BlinkMacSystemFont, &quot;Segoe UI&quot;, sans-serif;font-size:16px;font-weight:400;text-anchor:start;dominant-baseline:auto"/>
  <circle cx="0" cy="0" r="5" fill="none" stroke="#E8850A" stroke-width="1.2" style="fill:none;stroke:rgb(232, 133, 10);color:rgb(255, 255, 255);stroke-width:1.2px;stroke-linecap:butt;stroke-linejoin:miter;opacity:1;font-family:&quot;Anthropic Sans&quot;, -apple-system, BlinkMacSystemFont, &quot;Segoe UI&quot;, sans-serif;font-size:16px;font-weight:400;text-anchor:start;dominant-baseline:auto"/>
</g>
<text x="570" y="718" text-anchor="middle" font-family="var(--font-sans)" font-size="10" fill="#3A6048" style="fill:rgb(58, 96, 72);stroke:none;color:rgb(255, 255, 255);stroke-width:1px;stroke-linecap:butt;stroke-linejoin:miter;opacity:1;font-family:&quot;Anthropic Sans&quot;, sans-serif;font-size:10px;font-weight:400;text-anchor:middle;dominant-baseline:auto">1 tinta naranja</text>
<text x="570" y="730" text-anchor="middle" font-family="var(--font-sans)" font-size="9" fill="#3A4048" style="fill:rgb(58, 64, 72);stroke:none;color:rgb(255, 255, 255);stroke-width:1px;stroke-linecap:butt;stroke-linejoin:miter;opacity:1;font-family:&quot;Anthropic Sans&quot;, sans-serif;font-size:9px;font-weight:400;text-anchor:middle;dominant-baseline:auto">Serigrafía / stamp</text>

<!-- ══════════════════════════════════════
     NAVBAR
     ══════════════════════════════════════ -->
<line x1="40" y1="752" x2="640" y2="752" stroke="#1A2130" stroke-width="1" style="fill:rgb(0, 0, 0);stroke:rgb(26, 33, 48);color:rgb(255, 255, 255);stroke-width:1px;stroke-linecap:butt;stroke-linejoin:miter;opacity:1;font-family:&quot;Anthropic Sans&quot;, -apple-system, BlinkMacSystemFont, &quot;Segoe UI&quot;, sans-serif;font-size:16px;font-weight:400;text-anchor:start;dominant-baseline:auto"/>
<text x="40" y="772" font-family="var(--font-sans)" font-size="11" fill="#3A4048" style="fill:rgb(58, 64, 72);stroke:none;color:rgb(255, 255, 255);stroke-width:1px;stroke-linecap:butt;stroke-linejoin:miter;opacity:1;font-family:&quot;Anthropic Sans&quot;, sans-serif;font-size:11px;font-weight:400;text-anchor:start;dominant-baseline:auto">NAVBAR</text>
<rect x="40" y="784" width="600" height="48" fill="#0D1117" style="fill:rgb(13, 17, 23);stroke:none;color:rgb(255, 255, 255);stroke-width:1px;stroke-linecap:butt;stroke-linejoin:miter;opacity:1;font-family:&quot;Anthropic Sans&quot;, -apple-system, BlinkMacSystemFont, &quot;Segoe UI&quot;, sans-serif;font-size:16px;font-weight:400;text-anchor:start;dominant-baseline:auto"/>
<line x1="40" y1="831" x2="640" y2="831" stroke="#1DB87A" stroke-width="0.5" opacity="0.2" style="fill:rgb(0, 0, 0);stroke:rgb(29, 184, 122);color:rgb(255, 255, 255);stroke-width:0.5px;stroke-linecap:butt;stroke-linejoin:miter;opacity:0.2;font-family:&quot;Anthropic Sans&quot;, -apple-system, BlinkMacSystemFont, &quot;Segoe UI&quot;, sans-serif;font-size:16px;font-weight:400;text-anchor:start;dominant-baseline:auto"/>

<g transform="translate(64,808)" style="fill:rgb(0, 0, 0);stroke:none;color:rgb(255, 255, 255);stroke-width:1px;stroke-linecap:butt;stroke-linejoin:miter;opacity:1;font-family:&quot;Anthropic Sans&quot;, -apple-system, BlinkMacSystemFont, &quot;Segoe UI&quot;, sans-serif;font-size:16px;font-weight:400;text-anchor:start;dominant-baseline:auto">
  <path d="M0,0 C-5,-8 -16,-22 -22,-26 C-26,-30 -29,-27 -28,-22 C-26,-17 -19,-8 -11,3 C-5,10 0,15 4,16 C8,18 10,16 9,12 C7,9 4,5 0,0 Z" fill="#3A4550" stroke="#5A6570" stroke-width="0.5" style="fill:rgb(58, 69, 80);stroke:rgb(90, 101, 112);color:rgb(255, 255, 255);stroke-width:0.5px;stroke-linecap:butt;stroke-linejoin:miter;opacity:1;font-family:&quot;Anthropic Sans&quot;, -apple-system, BlinkMacSystemFont, &quot;Segoe UI&quot;, sans-serif;font-size:16px;font-weight:400;text-anchor:start;dominant-baseline:auto"/>
  <path d="M0,0 C8,-4 23,-10 29,-11 C33,-11 33,-8 30,-4 C26,0 18,5 8,8 C1,10 -5,11 -8,9 C-11,8 -11,4 -8,2 C-5,0 -2,0 0,0 Z" fill="#0A5838" stroke="#1DB87A" stroke-width="0.5" style="fill:rgb(10, 88, 56);stroke:rgb(29, 184, 122);color:rgb(255, 255, 255);stroke-width:0.5px;stroke-linecap:butt;stroke-linejoin:miter;opacity:1;font-family:&quot;Anthropic Sans&quot;, -apple-system, BlinkMacSystemFont, &quot;Segoe UI&quot;, sans-serif;font-size:16px;font-weight:400;text-anchor:start;dominant-baseline:auto"/>
  <path d="M0,0 C5,5 11,19 11,26 C12,32 9,33 5,31 C0,28 -5,20 -8,11 C-10,5 -10,-2 -8,-5 C-6,-9 -3,-8 0,-5 C1,-3 1,-1 0,0 Z" fill="#704008" stroke="#E8850A" stroke-width="0.5" style="fill:rgb(112, 64, 8);stroke:rgb(232, 133, 10);color:rgb(255, 255, 255);stroke-width:0.5px;stroke-linecap:butt;stroke-linejoin:miter;opacity:1;font-family:&quot;Anthropic Sans&quot;, -apple-system, BlinkMacSystemFont, &quot;Segoe UI&quot;, sans-serif;font-size:16px;font-weight:400;text-anchor:start;dominant-baseline:auto"/>
  <circle cx="0" cy="0" r="4" fill="#0D1117" style="fill:rgb(13, 17, 23);stroke:none;color:rgb(255, 255, 255);stroke-width:1px;stroke-linecap:butt;stroke-linejoin:miter;opacity:1;font-family:&quot;Anthropic Sans&quot;, -apple-system, BlinkMacSystemFont, &quot;Segoe UI&quot;, sans-serif;font-size:16px;font-weight:400;text-anchor:start;dominant-baseline:auto"/>
  <circle cx="0" cy="0" r="1.5" fill="#1DB87A" opacity="0.8" style="fill:rgb(29, 184, 122);stroke:none;color:rgb(255, 255, 255);stroke-width:1px;stroke-linecap:butt;stroke-linejoin:miter;opacity:0.8;font-family:&quot;Anthropic Sans&quot;, -apple-system, BlinkMacSystemFont, &quot;Segoe UI&quot;, sans-serif;font-size:16px;font-weight:400;text-anchor:start;dominant-baseline:auto"/>
</g>

<text x="88" y="804" font-family="Arial Black, sans-serif" font-size="14" font-weight="900" fill="#FFFFFF" style="fill:rgb(255, 255, 255);stroke:none;color:rgb(255, 255, 255);stroke-width:1px;stroke-linecap:butt;stroke-linejoin:miter;opacity:1;font-family:&quot;Arial Black&quot;, sans-serif;font-size:14px;font-weight:900;text-anchor:start;dominant-baseline:auto">OROZCO</text>
<text x="178" y="804" font-family="Arial Black, sans-serif" font-size="14" font-weight="900" fill="#1DB87A" style="fill:rgb(29, 184, 122);stroke:none;color:rgb(255, 255, 255);stroke-width:1px;stroke-linecap:butt;stroke-linejoin:miter;opacity:1;font-family:&quot;Arial Black&quot;, sans-serif;font-size:14px;font-weight:900;text-anchor:start;dominant-baseline:auto">INOX</text>
<text x="304" y="812" font-family="var(--font-sans)" font-size="10" fill="#5A6270" style="fill:rgb(90, 98, 112);stroke:none;color:rgb(255, 255, 255);stroke-width:1px;stroke-linecap:butt;stroke-linejoin:miter;opacity:1;font-family:&quot;Anthropic Sans&quot;, sans-serif;font-size:10px;font-weight:400;text-anchor:start;dominant-baseline:auto">CATÁLOGO</text>
<text x="382" y="812" font-family="var(--font-sans)" font-size="10" fill="#5A6270" style="fill:rgb(90, 98, 112);stroke:none;color:rgb(255, 255, 255);stroke-width:1px;stroke-linecap:butt;stroke-linejoin:miter;opacity:1;font-family:&quot;Anthropic Sans&quot;, sans-serif;font-size:10px;font-weight:400;text-anchor:start;dominant-baseline:auto">CALIDAD INOX</text>
<text x="472" y="812" font-family="var(--font-sans)" font-size="10" fill="#5A6270" style="fill:rgb(90, 98, 112);stroke:none;color:rgb(255, 255, 255);stroke-width:1px;stroke-linecap:butt;stroke-linejoin:miter;opacity:1;font-family:&quot;Anthropic Sans&quot;, sans-serif;font-size:10px;font-weight:400;text-anchor:start;dominant-baseline:auto">CONTACTO</text>
<rect x="544" y="796" width="72" height="22" rx="4" fill="#1DB87A" style="fill:rgb(29, 184, 122);stroke:none;color:rgb(255, 255, 255);stroke-width:1px;stroke-linecap:butt;stroke-linejoin:miter;opacity:1;font-family:&quot;Anthropic Sans&quot;, -apple-system, BlinkMacSystemFont, &quot;Segoe UI&quot;, sans-serif;font-size:16px;font-weight:400;text-anchor:start;dominant-baseline:auto"/>
<text x="580" y="807" text-anchor="middle" dominant-baseline="central" font-family="var(--font-sans)" font-size="9" font-weight="700" fill="#0D1117" style="fill:rgb(13, 17, 23);stroke:none;color:rgb(255, 255, 255);stroke-width:1px;stroke-linecap:butt;stroke-linejoin:miter;opacity:1;font-family:&quot;Anthropic Sans&quot;, sans-serif;font-size:9px;font-weight:700;text-anchor:middle;dominant-baseline:central">COTIZAR</text>

</svg>